# xmcd
#
# Track frame offsets: 
#        150
#        18618
#        33802
#        52261
#        68876
#        84214
#        100707
#        114457
#        137543
#        154359
#        170581
#        184493
#
# Disc length: 2632 seconds
#
# Revision: 1
# Processed by: cddbd v1.5.2PL0 Copyright (c) Steve Scherf et al.
# Submitted via: ExactAudioCopy v1.0b3
#
DISCID=9f0a460c
DTITLE=Young Rebel Set - Curse Our Love
DYEAR=2011
DGENRE=Folk/Rock
TTITLE0=Lion's Mouth
TTITLE1=Walk On
TTITLE2=If I Was
TTITLE3=Won't Get Up Again
TTITLE4=Borders
TTITLE5=Red Bricks
TTITLE6=Measure Of A Man
TTITLE7=Bagatelle
TTITLE8=Fall Hard
TTITLE9=Precious Days
TTITLE10=Billy Died
TTITLE11=Already Forgotten Your Name
EXTD=
EXTT0=
EXTT1=
EXTT2=
EXTT3=
EXTT4=
EXTT5=
EXTT6=
EXTT7=
EXTT8=
EXTT9=
EXTT10=
EXTT11=
PLAYORDER=
